<svg width="51" height="48" viewBox="0 0 51 48" fill="none" xmlns="http://www.w3.org/2000/svg">
<g id="Logo">
<rect id="Rectangle 1" width="32" height="32" rx="4" fill="#F2994A"/>
<path id="Star 1" d="M35.0979 21.8541C35.6966 20.0115 38.3034 20.0115 38.9021 21.8541L40.5922 27.0557C40.86 27.8798 41.6279 28.4377 42.4943 28.4377H47.9636C49.9011 28.4377 50.7066 30.9169 49.1392 32.0557L44.7145 35.2705C44.0135 35.7798 43.7202 36.6825 43.9879 37.5066L45.678 42.7082C46.2767 44.5508 44.1678 46.0831 42.6003 44.9443L38.1756 41.7295C37.4746 41.2202 36.5254 41.2202 35.8244 41.7295L31.3997 44.9443C29.8322 46.0831 27.7233 44.5508 28.322 42.7082L30.0121 37.5066C30.2798 36.6825 29.9865 35.7798 29.2855 35.2705L24.8608 32.0557C23.2934 30.9169 24.0989 28.4377 26.0364 28.4377H31.5057C32.3721 28.4377 33.14 27.8798 33.4078 27.0557L35.0979 21.8541Z" fill="#2F80ED"/>
<path id="Polygon 1" opacity="0.5" d="M33.2111 0.894427C34.3373 0.331372 35.6627 0.331372 36.7889 0.894427L48.7889 6.89443C50.144 7.572 51 8.95705 51 10.4721V21.5279C51 23.043 50.144 24.428 48.7889 25.1056L36.7889 31.1056C35.6627 31.6686 34.3373 31.6686 33.2111 31.1056L21.2111 25.1056C19.856 24.428 19 23.043 19 21.5279V10.4721C19 8.95705 19.856 7.572 21.2111 6.89443L33.2111 0.894427Z" fill="#EB5757"/>
<circle id="Ellipse 1" opacity="0.5" cx="16" cy="32" r="16" fill="#219653"/>
</g>
</svg>
